<?xml version="1.0" standalone="no"?>
<!DOCTYPE svg PUBLIC "-//W3C//DTD SVG 20010904//EN"
 "http://www.w3.org/TR/2001/REC-SVG-20010904/DTD/svg10.dtd">
<svg version="1.0" xmlns="http://www.w3.org/2000/svg"
 width="266.000000pt" height="268.000000pt" viewBox="0 0 266.000000 268.000000"
 preserveAspectRatio="xMidYMid meet">
<metadata>
Created by potrace 1.10, written by Peter Selinger 2001-2011
</metadata>
<g transform="translate(0.000000,268.000000) scale(0.050000,-0.050000)"
fill="#d3302b" stroke="none">
<path d="M2270 5170 c-1918 -339 -2692 -2671 -1357 -4090 1266 -1345 3465
-869 4084 885 612 1735 -911 3526 -2727 3205z m620 -491 c1557 -178 2290
-2019 1269 -3187 -1199 -1371 -3397 -556 -3399 1261 -1 1086 748 1845 1920
1944 17 2 111 -7 210 -18z"/>
<path d="M2350 4161 c-981 -261 -1427 -1335 -909 -2190 l65 -108 206 138 205
138 -68 134 c-333 662 111 1408 838 1407 656 -1 1128 -637 919 -1240 l-39
-110 232 -84 c127 -47 233 -85 235 -85 27 -4 111 366 119 529 51 940 -895
1712 -1803 1471z"/>
<path d="M2530 3062 c-406 -189 -285 -770 160 -770 223 1 378 134 404 346 36
310 -287 553 -564 424z"/>
</g>
</svg>
