<svg width="512" height="512" xmlns="http://www.w3.org/2000/svg" class="fl-svgdocument">

 <g>
  <title>background</title>
  <rect fill="none" id="canvas_background" height="602" width="802" y="-1" x="-1"/>
 </g>
 <g>
  <title>Layer 1</title>
  <path fill="rgba(48,80,53,0.99)" d="m221.571906,121.216135l-15.958287,-15.41081c-2.635313,-2.544904 -6.836117,-2.471589 -9.381022,0.163725l-94.305125,97.655367c-2.544904,2.635313 -2.471589,6.836117 0.163725,9.381022l96.233809,92.932336c2.635313,2.544904 6.836117,2.471589 9.381022,-0.163725l94.305125,-97.655367c2.544904,-2.635313 2.471589,-6.836117 -0.163725,-9.381022l-36.474061,-35.222753l24.22904,-25.08979l45.914906,44.339714c11.278008,10.891096 11.591686,28.864038 0.70059,40.142047l-112.539046,116.537058c-10.891096,11.278008 -28.864038,11.591686 -40.142047,0.70059l-115.1155,-111.166257c-11.278008,-10.891096 -11.591686,-28.864038 -0.70059,-40.142047l112.539046,-116.537058c10.891096,-11.278008 28.864038,-11.591686 40.142047,-0.70059l25.399133,24.52777l-24.22904,25.08979z" id="_fclVC_gW3knTSnF4jsxLl"/>
  <path fill="rgba(252, 105, 10,1)" d="m290.430379,288.30072l15.958287,15.41081c2.635313,2.544904 6.836117,2.471589 9.381022,-0.163725l94.302845,-97.653006c2.544904,-2.635313 2.471589,-6.836117 -0.163725,-9.381022l-96.233809,-92.932336c-2.635313,-2.544904 -6.836117,-2.471589 -9.381022,0.163725l-94.302845,97.653006c-2.544904,2.635313 -2.471589,6.836117 0.163725,9.381022l36.474061,35.222753l-24.22904,25.08979l-45.914906,-44.339714c-11.278008,-10.891096 -11.591686,-28.864038 -0.70059,-40.142047l112.536765,-116.534696c10.891096,-11.278008 28.864038,-11.591686 40.142047,-0.70059l115.1155,111.166257c11.278008,10.891096 11.591686,28.864038 0.70059,40.142047l-112.539046,116.537058c-10.891096,11.278008 -28.864038,11.591686 -40.142047,0.70059l-25.399133,-24.52777l24.231321,-25.092152z" id="_2yC6JlP49xF4W450B5ghS"/>
 </g>
</svg>